<?xml version="1.0" encoding="UTF-8" standalone="no"?> <svg width="512" height="512" viewBox="0 0 512 512" fill="none" xmlns="http://www.w3.org/2000/svg">
<path d="M464 16H400C397 16 394.3 17.6 392.9 20.3L340.4 120H276L302.2 78.5C305.3 79.5 308.6 80 312 80C329.6 80 344 65.6 344 48C344 30.4 329.6 16 312 16C294.4 16 280 30.4 280 48C280 56.5 283.3 64.2 288.7 69.9L257.1 120H199.6C197.8 103.8 190.7 88.8 179 77.1C165.3 63.5 147.2 56 128 56C108.8 56 90.7 63.5 77.1 77.1C63.5 90.7 56 108.8 56 128C56 147.2 63.5 165.3 77.1 178.9C90.7 192.5 108.8 200 128 200C144.5 200 160.2 194.4 172.9 184.2L175.8 187.1L247.9 259.2V436.2L194.7 481.8C192.2 484 191.2 487.5 192.4 490.6C193.6 493.7 196.6 495.8 199.9 495.8H311.9C315.2 495.8 318.2 493.7 319.4 490.6C320.6 487.5 319.6 483.9 317.1 481.8L264 436.3V259.3L339.7 183.6L389.6 133.7C391.9 131.4 392.6 128 391.3 125C390 122 387.1 120.1 383.9 120.1H358.4L404.7 32.1H464C468.4 32.1 472 28.5 472 24.1C472 19.7 468.4 16 464 16ZM312 32C320.8 32 328 39.2 328 48C328 56.8 320.8 64 312 64C303.2 64 296 56.8 296 48C296 39.2 303.2 32 312 32ZM172.9 94.5C178.5 102 182.2 110.7 183.5 120H147.4L172.9 94.5ZM136 108.7V72.6C145.3 73.9 154 77.5 161.5 83.2L136 108.7ZM120 72.6V108.7L94.5 83.1C102 77.5 110.7 73.9 120 72.6ZM83.1 94.5L108.6 120H72.6C73.9 110.7 77.5 102 83.1 94.5ZM108.7 136L83.2 161.5C77.6 154 73.9 145.3 72.6 136H108.7ZM120 147.3V183.4C110.7 182.1 102 178.5 94.5 172.8L120 147.3ZM136 183.4V147.3L161.5 172.8C154 178.5 145.3 182.1 136 183.4ZM302.6 177.9C306.1 181.4 310.4 184.1 315 185.6L256 244.6L193.3 182L204 172.8C210.5 167.2 220.3 167.6 226.4 173.7L226.9 174.2C238.6 185.9 257.2 186.9 270.1 176.6L275.9 172C282.5 166.7 291.9 167.3 297.8 173.2L302.6 177.9ZM221.6 480L256 450.5L290.4 480H221.6ZM329.8 170.9C324.2 172.4 318.1 170.8 313.9 166.7L309.1 161.9C297.4 150.2 278.8 149.2 265.9 159.5L260.1 164.1C253.5 169.3 244.1 168.8 238.2 162.9L237.7 162.4C225.8 150.5 206.4 149.7 193.6 160.7L182 170.7L179 167.7L147.3 136H192H261.4H345.1H364.5L329.8 170.9ZM200 280C200 262.4 185.6 248 168 248C150.4 248 136 262.4 136 280C136 297.6 150.4 312 168 312C185.6 312 200 297.6 200 280ZM168 296C159.2 296 152 288.8 152 280C152 271.2 159.2 264 168 264C176.8 264 184 271.2 184 280C184 288.8 176.8 296 168 296ZM326.4 294.4C326.4 281.2 315.6 270.4 302.4 270.4C289.2 270.4 278.4 281.2 278.4 294.4C278.4 307.6 289.2 318.4 302.4 318.4C315.6 318.4 326.4 307.6 326.4 294.4ZM302.4 302.4C298 302.4 294.4 298.8 294.4 294.4C294.4 290 298 286.4 302.4 286.4C306.8 286.4 310.4 290 310.4 294.4C310.4 298.8 306.8 302.4 302.4 302.4ZM224 352C224 338.8 213.2 328 200 328C186.8 328 176 338.8 176 352C176 365.2 186.8 376 200 376C213.2 376 224 365.2 224 352ZM192 352C192 347.6 195.6 344 200 344C204.4 344 208 347.6 208 352C208 356.4 204.4 360 200 360C195.6 360 192 356.4 192 352ZM336 376C336 384.8 328.8 392 320 392C311.2 392 304 384.8 304 376C304 367.2 311.2 360 320 360C328.8 360 336 367.2 336 376ZM376 208C358.4 208 344 222.4 344 240C344 257.6 358.4 272 376 272C393.6 272 408 257.6 408 240C408 222.4 393.6 208 376 208ZM376 256C367.2 256 360 248.8 360 240C360 231.2 367.2 224 376 224C384.8 224 392 231.2 392 240C392 248.8 384.8 256 376 256Z" fill="url(#paint0_linear_40_25107)"/>
<defs>
<linearGradient id="paint0_linear_40_25107" x1="91.7156" y1="391.029" x2="467.029" y2="15.7157" gradientUnits="userSpaceOnUse">
<stop stop-color="#12C2E9"/>
<stop offset="0.505" stop-color="#C471ED"/>
<stop offset="1" stop-color="#F64F59"/>
</linearGradient>
</defs>
</svg>
